<svg id="Layer_1" enable-background="new 0 0 510 510" height="512" viewBox="0 0 510 510" width="512" xmlns="http://www.w3.org/2000/svg"><g id="XMLID_549_"><path id="XMLID_503_" d="m255 447.034-146.921 62.966h-48.079v-30h41.921l153.079-65.605 143.333-44.395z" fill="#00467d"/><path id="XMLID_618_" d="m255 447.034 170.909-73.247-11.818-27.574-159.091 68.182z" fill="#00215a"/><path id="XMLID_537_" d="m401.921 494.333-146.922-47.3-170.908-73.246 11.818-27.574 159.093 68.183z" fill="#3b6bab"/><path id="XMLID_616_" d="m408.079 480-153.079-65.605v32.639l146.921 62.966h48.079v-30z" fill="#00467d"/><path id="XMLID_561_" d="m60 300v-105h44v-30h-74v120l15 15z" fill="#3b6bab"/><path id="XMLID_555_" d="m450 300v-105h-44v-30h74v120l-15 15z" fill="#00467d"/><path id="XMLID_609_" d="m90 0h330v315h-330z" fill="#fffae3"/><path id="XMLID_565_" d="m255 315h-165v-315h165l165 165z" fill="#ffb454"/><path id="XMLID_557_" d="m255 0h165v315h-165z" fill="#ff884d"/><path id="XMLID_573_" d="m255 90h-165v-30h165l165 15z" fill="#ffe278"/><path id="XMLID_563_" d="m255 60h165v30h-165z" fill="#ffb454"/><path id="XMLID_491_" d="m255 375h-225v-90h225l225 45z" fill="#ff884d"/><path id="XMLID_564_" d="m255 285h225v90h-225z" fill="#ff4d4d"/><path id="XMLID_621_" d="m255 150h-165v-30h165l165 15z" fill="#ffe278"/><path id="XMLID_607_" d="m255 120h165v30h-165z" fill="#ffb454"/></g></svg>